<mxfile host="65bd71144e">
    <diagram id="Jx6ZANt-YJVvonkBHBtL" name="Page-1">
        <mxGraphModel dx="1206" dy="510" grid="1" gridSize="10" guides="1" tooltips="1" connect="1" arrows="1" fold="1" page="1" pageScale="1" pageWidth="850" pageHeight="1100" math="0" shadow="0">
            <root>
                <mxCell id="0"/>
                <mxCell id="1" parent="0"/>
                <mxCell id="12" style="edgeStyle=none;html=1;exitX=0.5;exitY=1;exitDx=0;exitDy=0;" parent="1" source="2" target="9" edge="1">
                    <mxGeometry relative="1" as="geometry"/>
                </mxCell>
                <mxCell id="13" value="HTTP Requests" style="edgeLabel;html=1;align=center;verticalAlign=middle;resizable=0;points=[];" parent="12" vertex="1" connectable="0">
                    <mxGeometry x="-0.3091" y="3" relative="1" as="geometry">
                        <mxPoint y="5" as="offset"/>
                    </mxGeometry>
                </mxCell>
                <mxCell id="2" value="Composables&lt;br&gt;" style="whiteSpace=wrap;html=1;verticalAlign=top;" parent="1" vertex="1">
                    <mxGeometry x="100" y="80" width="160" height="100" as="geometry"/>
                </mxCell>
                <mxCell id="6" style="edgeStyle=none;html=1;exitX=0;exitY=0.5;exitDx=0;exitDy=0;" parent="1" source="3" target="2" edge="1">
                    <mxGeometry relative="1" as="geometry"/>
                </mxCell>
                <mxCell id="14" value="Uses" style="edgeLabel;html=1;align=center;verticalAlign=middle;resizable=0;points=[];" parent="6" vertex="1" connectable="0">
                    <mxGeometry x="0.1462" y="-1" relative="1" as="geometry">
                        <mxPoint as="offset"/>
                    </mxGeometry>
                </mxCell>
                <mxCell id="3" value="Pages" style="whiteSpace=wrap;html=1;verticalAlign=top;" parent="1" vertex="1">
                    <mxGeometry x="350" y="65" width="190" height="130" as="geometry"/>
                </mxCell>
                <mxCell id="4" value="index.vue&lt;br&gt;" style="whiteSpace=wrap;html=1;verticalAlign=top;" parent="1" vertex="1">
                    <mxGeometry x="375" y="105" width="135" height="80" as="geometry"/>
                </mxCell>
                <mxCell id="7" value="useModule.js&lt;br&gt;" style="whiteSpace=wrap;html=1;verticalAlign=top;" parent="1" vertex="1">
                    <mxGeometry x="115" y="115" width="130" height="50" as="geometry"/>
                </mxCell>
                <mxCell id="9" value="Module Loader" style="whiteSpace=wrap;html=1;verticalAlign=middle;" parent="1" vertex="1">
                    <mxGeometry x="93.75" y="240" width="166.25" height="90" as="geometry"/>
                </mxCell>
            </root>
        </mxGraphModel>
    </diagram>
</mxfile>